<?xml version="1.0" encoding="UTF-8"?>
<!DOCTYPE svg PUBLIC "-//W3C//DTD SVG 1.1//EN" "http://www.w3.org/Graphics/SVG/1.1/DTD/svg11.dtd">
<!-- Creator: CorelDRAW X7 -->
<svg xmlns="http://www.w3.org/2000/svg" xml:space="preserve" width="84.6666mm" height="84.6666mm" version="1.1" style="shape-rendering:geometricPrecision; text-rendering:geometricPrecision; image-rendering:optimizeQuality; fill-rule:evenodd; clip-rule:evenodd"
viewBox="0 0 8467 8467"
 xmlns:xlink="http://www.w3.org/1999/xlink">
 <defs>
  <style type="text/css">
   <![CDATA[
    .fil1 {fill:#FEFEFE}
    .fil2 {fill:url(#id0)}
    .fil0 {fill:url(#id1)}
   ]]>
  </style>
  <linearGradient id="id0" gradientUnits="userSpaceOnUse" x1="4268.97" y1="1916.41" x2="4197.68" y2="6550.27">
   <stop offset="0" style="stop-opacity:1; stop-color:#00A1D8"/>
   <stop offset="1" style="stop-opacity:1; stop-color:#66C5E4"/>
  </linearGradient>
  <linearGradient id="id1" gradientUnits="userSpaceOnUse" x1="4325.44" y1="8470.19" x2="4141.22" y2="-3.53">
   <stop offset="0" style="stop-opacity:1; stop-color:#00A1D8"/>
   <stop offset="1" style="stop-opacity:1; stop-color:#50CDE1"/>
  </linearGradient>
 </defs>
 <g id="Layer_x0020_1">
  <metadata id="CorelCorpID_0Corel-Layer"/>
  <polygon class="fil0" points="4233,0 6350,2117 8467,4233 6350,6350 4233,8467 2117,6350 0,4233 2117,2117 "/>
  <path class="fil1" d="M4233 1904c-1286,0 -2329,1043 -2329,2329 0,1287 1043,2329 2329,2329 1287,0 2329,-1042 2329,-2329 0,-1286 -1042,-2329 -2329,-2329zm0 -266c-1433,0 -2595,1162 -2595,2595 0,1434 1162,2596 2595,2596 1434,0 2596,-1162 2596,-2596 0,-1433 -1162,-2595 -2596,-2595z"/>
  <circle class="fil2" cx="4233" cy="4233" r="2329"/>
  <path class="fil1" d="M3193 4129c0,-277 -121,-506 -509,-506 -212,0 -372,60 -453,105l67 234c76,-48 202,-88 321,-88 179,0 212,88 212,152l0 14c-412,0 -683,143 -683,446 0,186 140,357 376,357 138,0 257,-50 334,-143l7 0 21 117 327 0c-15,-64 -20,-172 -20,-281l0 -407zm-350 264c0,21 -2,43 -7,62 -24,74 -100,133 -188,133 -81,0 -143,-45 -143,-138 0,-138 148,-183 338,-183l0 126zm1470 126c-55,24 -121,38 -207,38 -176,0 -319,-114 -319,-326 -3,-191 121,-326 312,-326 95,0 159,16 202,35l57 -269c-76,-28 -181,-45 -276,-45 -434,0 -667,279 -667,619 0,365 241,596 617,596 138,0 260,-24 324,-55l-43 -267zm243 298l353 0 0 -679c0,-31 2,-64 14,-93 21,-57 76,-129 169,-129 117,0 169,101 169,246l0 655 353 0 0 -681c0,-31 5,-67 12,-93 26,-69 83,-127 169,-127 117,0 171,98 171,267l0 634 353 0 0 -686c0,-350 -169,-508 -393,-508 -86,0 -157,22 -222,58 -57,33 -107,81 -152,143l-5 0c-50,-122 -167,-201 -319,-201 -198,0 -303,110 -353,186l-7 0 -14 -157 -307 0c4,105 9,226 9,372l0 793z"/>
  <path class="fil1" d="M3084 5119l0 437c0,249 115,360 312,360 205,0 327,-116 327,-357l0 -440 -177 0 0 450c0,140 -51,205 -144,205 -89,0 -142,-69 -142,-205l0 -450 -176 0zm792 784l176 0 0 -282c16,4 37,5 60,5 105,0 195,-27 255,-82 48,-43 72,-110 72,-186 0,-77 -32,-142 -84,-182 -52,-42 -130,-63 -239,-63 -108,0 -185,7 -240,17l0 773zm176 -649c13,-3 37,-6 72,-6 90,0 140,43 140,115 0,79 -59,127 -153,127 -26,0 -44,-1 -59,-5l0 -231zm1159 649l172 0 -42 -784 -232 0 -83 261c-27,87 -53,190 -74,281l-5 0c-17,-92 -41,-190 -66,-280l-77 -262 -236 0 -50 784 164 0 15 -298c5,-97 9,-218 13,-324l2 0c20,102 46,214 71,307l84 302 138 0 95 -306c31,-92 63,-203 89,-303l2 0c0,114 4,228 7,322l13 300z"/>
 </g>
</svg>
